<svg xmlns="http://www.w3.org/2000/svg" viewBox="0 0 61.44 61.44"><defs><style>.cls-1{fill:#fff;}</style></defs><g id="Layer_2" ><g id="Layer_1-2" ><path d="M.24,0h61.2V61.44H.24c0-.2,0-.4,0-.6V.6C.27.4.25.2.24,0ZM49.73,48c0-2.44,0-4.75,0-7.06a72.69,72.69,0,0,0-.26-8.62c-1.14-8.4-9.59-9.5-14.08-6.54a23.11,23.11,0,0,0-2.21,2v-3H24.88V48h8.34V46.58c0-4,0-7.92,0-11.88a4.2,4.2,0,0,1,3.84-4.15A4.07,4.07,0,0,1,41.53,34a13.7,13.7,0,0,1,.21,2.39c0,3.43,0,6.87,0,10.31,0,.42,0,.84.06,1.3ZM20.46,48V24.79H13.65V48ZM16.61,13.66c-2.61,0-4.5,1.7-4.5,4.08a4.08,4.08,0,0,0,4.33,4.13c2.64,0,4.56-1.64,4.6-4A4.2,4.2,0,0,0,16.61,13.66Z"/><path class="cls-1" d="M.24,0c0,.2,0,.4,0,.6V60.84c0,.2,0,.4,0,.6C.16,61.28,0,61.12,0,61Q0,30.72,0,.48C0,.32.16.16.24,0Z"/><path class="cls-1" d="M49.73,48H41.81c0-.46-.05-.88-.06-1.3,0-3.44,0-6.88,0-10.31A13.7,13.7,0,0,0,41.53,34a4.07,4.07,0,0,0-4.46-3.45,4.2,4.2,0,0,0-3.84,4.15c0,4,0,7.92,0,11.88V48H24.88V24.78h8.29v3a23.11,23.11,0,0,1,2.21-2c4.49-3,12.94-1.86,14.08,6.54a72.69,72.69,0,0,1,.26,8.62C49.76,43.25,49.73,45.56,49.73,48Z"/><path class="cls-1" d="M20.46,48H13.65V24.79h6.81Z"/><path class="cls-1" d="M16.61,13.66A4.2,4.2,0,0,1,21,17.86c0,2.37-2,4-4.6,4a4.08,4.08,0,0,1-4.33-4.13C12.11,15.36,14,13.65,16.61,13.66Z"/></g></g></svg>