<svg xmlns="http://www.w3.org/2000/svg" viewBox="0 0 663.02 676"><defs><style>.cls-1{fill:#630;}.cls-2,.cls-5{fill:#033;}.cls-2{stroke:#0a3d4d;}.cls-2,.cls-4{stroke-miterlimit:10;}.cls-3{isolation:isolate;}.cls-4{fill:#fc3;stroke:#000;}.cls-6{fill:#b48043;}.cls-7{fill:#262a2e;}.cls-8{fill:#ecb88a;}.cls-9{fill:#a77c47;}.cls-10{fill:#a87b46;}.cls-11{fill:#a07b4f;}.cls-12{fill:#214d70;}.cls-13{fill:#ecb889;}.cls-14{fill:#ebb88a;}.cls-15{fill:#977658;}.cls-16{fill:#c69a74;}.cls-17{fill:#bb926d;}.cls-18{fill:#ebb889;}.cls-19{fill:#ebb789;}.cls-20{fill:#bc936e;}.cls-21{fill:#b9916c;}.cls-22{fill:#e7b587;}.cls-23{fill:#866339;}.cls-24{fill:#b48f6c;}.cls-25{fill:#a28467;}.cls-26{fill:#deae82;}.cls-27{fill:#a2815e;}.cls-28{fill:#a87b44;}.cls-29{fill:#a57946;}.cls-30{fill:#9d7954;}.cls-31{fill:#a27c51;}.cls-32{fill:#604b38;}.cls-33{fill:#ba936f;}.cls-34{fill:#ba926d;}.cls-35{fill:#b68f6b;}.cls-36{fill:#b9916e;}.cls-37{fill:#4c3c2e;}.cls-38{fill:#424242;}.cls-39{fill:#b7916e;}.cls-40{fill:#424241;}.cls-41{fill:#bb9a7d;}.cls-42{fill:#ae8b6a;}.cls-43{fill:#c4bbb3;}.cls-44{fill:#bbb0a5;}.cls-45{fill:#a38264;}.cls-46{fill:#6a6761;}.cls-47{fill:#fefefe;}.cls-48{fill:#67503c;}.cls-49{fill:#c9c4bf;}.cls-50{fill:#4d4d4d;}</style></defs><g id="Layer_2" ><g id="Layer_1-2" ><path class="cls-1" d="M331.51,0c442,2,442,674.07,0,676C-110.52,674-110.48,1.93,331.51,0Z"/><rect class="cls-2" x="136.98" y="457.13" width="395.06" height="139.68" rx="22.01"/><g class="cls-3"><path class="cls-4" d="M158.43,543.46h-.08L156.8,558.3h-6l-3.1-27.86H152l2.31,22h.08l2.06-22h4.22l2.15,22.13h.08l2.23-22.13h3.82l-3.1,27.86H160Z"/><path class="cls-4" d="M176.62,542.18h6v4h-6v8.16h7.56v4H172.24V530.44h11.94v4h-7.56Z"/><path class="cls-4" d="M201.13,536.85v1c0,2.87-.88,4.66-2.83,5.58v.08c2.35.91,3.27,3,3.27,5.93v2.26c0,4.3-2.27,6.61-6.65,6.61H188V530.44h6.6C199.18,530.44,201.13,532.55,201.13,536.85Zm-8.72-2.43v7.37h1.72c1.63,0,2.62-.72,2.62-2.95v-1.55c0-2-.68-2.87-2.23-2.87Zm0,11.34v8.56h2.51c1.47,0,2.27-.68,2.27-2.75v-2.42c0-2.59-.84-3.39-2.83-3.39Z"/><path class="cls-4" d="M212.67,530.44h6.92c4.38,0,6.53,2.43,6.53,6.89v14.09c0,4.45-2.15,6.88-6.53,6.88h-6.92Zm4.37,4v19.9h2.47c1.39,0,2.23-.72,2.23-2.71V537.13c0-2-.84-2.71-2.23-2.71Z"/><path class="cls-4" d="M234.43,542.18h6v4h-6v8.16H242v4H230.05V530.44H242v4h-7.56Z"/><path class="cls-4" d="M251.74,530.12c4.26,0,6.45,2.55,6.45,7V538h-4.14v-1.15c0-2-.8-2.75-2.19-2.75s-2.19.76-2.19,2.75.88,3.54,3.74,6c3.66,3.22,4.82,5.53,4.82,8.71,0,4.46-2.23,7-6.53,7s-6.53-2.55-6.53-7V549.9h4.14v2c0,2,.88,2.71,2.27,2.71s2.27-.72,2.27-2.71-.88-3.54-3.74-6c-3.66-3.22-4.82-5.53-4.82-8.71C245.29,532.67,247.48,530.12,251.74,530.12Z"/><path class="cls-4" d="M261.89,530.44h4.37V558.3h-4.37Z"/><path class="cls-4" d="M277.17,542.78h6.12v8.83c0,4.46-2.23,7-6.52,7s-6.53-2.55-6.53-7V537.13c0-4.46,2.23-7,6.53-7s6.52,2.55,6.52,7v2.7h-4.14v-3c0-2-.87-2.75-2.26-2.75s-2.27.76-2.27,2.75v15c0,2,.87,2.71,2.27,2.71s2.26-.72,2.26-2.71v-5.13h-2Z"/><path class="cls-4" d="M291.25,538.12h-.08V558.3h-3.94V530.44h5.49l4.42,16.68h.08V530.44h3.9V558.3h-4.5Z"/><path class="cls-4" d="M315.8,543.62v-.08c-2.07-.88-3-2.71-3-5.7v-.51c0-4.46,2.14-6.89,6.52-6.89h5v4h-4.94c-1.39,0-2.23.72-2.23,2.71v1.71c0,2.23,1,2.95,2.63,2.95h1.91v-3.11h4.38v3.11h1.15v4h-1.15v9.16a8.17,8.17,0,0,0,.48,3.38h-4.46a6.66,6.66,0,0,1-.4-2.19h-.08a4,4,0,0,1-4,2.51c-3.22,0-4.85-2.27-4.85-6.37v-2.82C312.78,546.6,313.65,544.57,315.8,543.62Zm3.62,11c1.31,0,2.19-.68,2.27-2.43v-6.45H320c-2,0-2.87,1-2.87,3.55v2.58C317.15,553.88,318,554.64,319.42,554.64Z"/><path class="cls-4" d="M337.68,530.44h6.93c4.38,0,6.52,2.43,6.52,6.89v14.09c0,4.45-2.14,6.88-6.52,6.88h-6.93Zm4.38,4v19.9h2.47c1.39,0,2.23-.72,2.23-2.71V537.13c0-2-.84-2.71-2.23-2.71Z"/><path class="cls-4" d="M359.45,542.18h6v4h-6v8.16H367v4H355.07V530.44H367v4h-7.56Z"/><path class="cls-4" d="M377.43,553.17h.08l3.31-22.73h4l-4.3,27.86H374l-4.3-27.86h4.42Z"/><path class="cls-4" d="M392.39,542.18h6v4h-6v8.16H400v4H388V530.44H400v4h-7.57Z"/><path class="cls-4" d="M403.81,530.44h4.38v23.88h7.2v4H403.81Z"/><path class="cls-4" d="M418.1,537.13c0-4.46,2.35-7,6.64-7s6.65,2.55,6.65,7v14.48c0,4.46-2.35,7-6.65,7s-6.64-2.55-6.64-7Zm4.37,14.76c0,2,.88,2.75,2.27,2.75s2.27-.76,2.27-2.75v-15c0-2-.87-2.75-2.27-2.75s-2.27.76-2.27,2.75Z"/><path class="cls-4" d="M448.34,537.33V541c0,4.46-2.15,6.88-6.53,6.88h-2.07V558.3h-4.37V530.44h6.44C446.19,530.44,448.34,532.87,448.34,537.33Zm-8.6-2.91v9.43h2.07c1.4,0,2.15-.63,2.15-2.62v-4.18c0-2-.75-2.63-2.15-2.63Z"/><path class="cls-4" d="M460.75,550.22h.08l2.95-19.78h6.09V558.3h-4.14v-20h-.08l-2.95,20h-4.14l-3.18-19.7h-.08v19.7h-3.82V530.44h6.09Z"/><path class="cls-4" d="M478.58,542.18h6v4h-6v8.16h7.56v4H474.2V530.44h11.94v4h-7.56Z"/><path class="cls-4" d="M494,538.12h-.08V558.3H490V530.44h5.49l4.42,16.68H500V530.44h3.9V558.3h-4.5Z"/><path class="cls-4" d="M506.87,530.44H520.4v4h-4.58V558.3h-4.38V534.42h-4.57Z"/></g><g class="cls-3"><path class="cls-4" d="M218.66,502.65l0,4.19H197.49V472h21.14v4.2H202.57v11H215.5v4.05H202.57v11.35Z"/><path class="cls-4" d="M227.71,486.93a11.24,11.24,0,0,1,2.81-3.8,5.9,5.9,0,0,1,3.94-1.38,6,6,0,0,1,1.49.18,3.87,3.87,0,0,1,1.22.54l-.31,3.57a.76.76,0,0,1-.78.65,5.32,5.32,0,0,1-1-.13,7.24,7.24,0,0,0-1.43-.13,5.69,5.69,0,0,0-2,.32,4.57,4.57,0,0,0-1.53,1,6.77,6.77,0,0,0-1.2,1.58,16.88,16.88,0,0,0-1,2.12v15.42h-4.63V482.21H226a1.46,1.46,0,0,1,1,.28,1.84,1.84,0,0,1,.39,1Z"/><path class="cls-4" d="M246.48,474.59a3,3,0,0,1-.26,1.25,3.28,3.28,0,0,1-.7,1,3.22,3.22,0,0,1-1,.71,3.12,3.12,0,0,1-1.24.25,2.91,2.91,0,0,1-1.21-.25,3.35,3.35,0,0,1-1.7-1.75,3.1,3.1,0,0,1-.25-1.25,3.2,3.2,0,0,1,.25-1.27,3.5,3.5,0,0,1,.69-1,3.21,3.21,0,0,1,1-.7,2.92,2.92,0,0,1,1.21-.26,3.13,3.13,0,0,1,1.24.26,3.19,3.19,0,0,1,1,.7,3.53,3.53,0,0,1,.7,1A3,3,0,0,1,246.48,474.59Zm-.88,7.62v24.63H241V482.21Z"/><path class="cls-4" d="M269.25,486.81a3.46,3.46,0,0,1-.42.43,1,1,0,0,1-.58.16,1.39,1.39,0,0,1-.8-.31,10.22,10.22,0,0,0-1-.65,9.59,9.59,0,0,0-1.52-.66,7,7,0,0,0-2.2-.3,6.88,6.88,0,0,0-3,.63,5.81,5.81,0,0,0-2.17,1.79,8.38,8.38,0,0,0-1.32,2.84,14.52,14.52,0,0,0-.45,3.76,14,14,0,0,0,.47,3.84,8.43,8.43,0,0,0,1.36,2.84,5.58,5.58,0,0,0,2.13,1.74,6.46,6.46,0,0,0,2.81.6,6.93,6.93,0,0,0,2.47-.38,7.76,7.76,0,0,0,1.61-.81,10.18,10.18,0,0,0,1.07-.81,1.35,1.35,0,0,1,.88-.38,1,1,0,0,1,.88.44l1.33,1.74a8.63,8.63,0,0,1-1.86,1.77,10,10,0,0,1-2.2,1.19,11.75,11.75,0,0,1-2.44.68,14.62,14.62,0,0,1-2.57.22,10.4,10.4,0,0,1-4.22-.85,9.52,9.52,0,0,1-3.4-2.47,11.9,11.9,0,0,1-2.27-4,17.65,17.65,0,0,1-.08-10.44,11.24,11.24,0,0,1,2.21-4,10.2,10.2,0,0,1,3.6-2.64,11.79,11.79,0,0,1,4.89-1,11.35,11.35,0,0,1,4.56.85,10.91,10.91,0,0,1,3.52,2.4Z"/><path class="cls-4" d="M317.79,489.43a19.9,19.9,0,0,1-1.22,7.11,16,16,0,0,1-3.46,5.49,15.61,15.61,0,0,1-5.34,3.55,18.3,18.3,0,0,1-6.92,1.26H288V472h12.83a18.11,18.11,0,0,1,6.92,1.27,15.33,15.33,0,0,1,5.34,3.55,15.85,15.85,0,0,1,3.46,5.5A19.91,19.91,0,0,1,317.79,489.43Zm-5.18,0a17.14,17.14,0,0,0-.83-5.56,11.79,11.79,0,0,0-2.36-4.17,10.08,10.08,0,0,0-3.71-2.61,12.6,12.6,0,0,0-4.86-.9h-7.74v26.48h7.74a12.6,12.6,0,0,0,4.86-.9,10.06,10.06,0,0,0,3.71-2.6,11.83,11.83,0,0,0,2.36-4.16A17.14,17.14,0,0,0,312.61,489.43Z"/><path class="cls-4" d="M333.17,481.82a12.53,12.53,0,0,1,4.81.88,10.07,10.07,0,0,1,3.66,2.55,11.54,11.54,0,0,1,2.32,4,17.66,17.66,0,0,1,0,10.51,11.36,11.36,0,0,1-2.32,4,10,10,0,0,1-3.66,2.53,13.52,13.52,0,0,1-9.65,0,10.15,10.15,0,0,1-3.67-2.53,11.39,11.39,0,0,1-2.34-4,17.25,17.25,0,0,1,0-10.51,11.58,11.58,0,0,1,2.34-4,10.2,10.2,0,0,1,3.67-2.55A12.65,12.65,0,0,1,333.17,481.82Zm0,21.67a5.87,5.87,0,0,0,5.11-2.35,13.9,13.9,0,0,0,0-13.25,5.88,5.88,0,0,0-5.11-2.36,6,6,0,0,0-5.17,2.36,13.76,13.76,0,0,0,0,13.25A6,6,0,0,0,333.17,503.49Z"/><path class="cls-4" d="M354.27,485.62a17,17,0,0,1,1.64-1.55,11.36,11.36,0,0,1,1.81-1.2,9.3,9.3,0,0,1,2.07-.77,9.42,9.42,0,0,1,2.36-.28,8.36,8.36,0,0,1,3.51.68,6.85,6.85,0,0,1,2.53,1.9,8.21,8.21,0,0,1,1.54,3,12.93,12.93,0,0,1,.53,3.8v15.69H365.6V491.15a6.39,6.39,0,0,0-1.19-4.11,4.41,4.41,0,0,0-3.63-1.46,6.73,6.73,0,0,0-3.34.86,11,11,0,0,0-2.89,2.34v18.06h-4.63V482.21h2.78a1.13,1.13,0,0,1,1.21.94Z"/><path class="cls-4" d="M380.85,485.62a18.29,18.29,0,0,1,1.64-1.55,11.45,11.45,0,0,1,1.82-1.2,9.65,9.65,0,0,1,4.43-1.05,8.39,8.39,0,0,1,3.51.68,7,7,0,0,1,2.53,1.9,8.37,8.37,0,0,1,1.54,3,12.93,12.93,0,0,1,.52,3.8v15.69h-4.65V491.15A6.39,6.39,0,0,0,391,487a4.42,4.42,0,0,0-3.64-1.46,6.67,6.67,0,0,0-3.33.86,11,11,0,0,0-2.89,2.34v18.06H376.5V482.21h2.79a1.14,1.14,0,0,1,1.21.94Z"/><path class="cls-4" d="M422.91,503.32a9.17,9.17,0,0,1-2,1.76,10.85,10.85,0,0,1-2.38,1.2,13.63,13.63,0,0,1-2.6.68,16.06,16.06,0,0,1-2.65.22,12.29,12.29,0,0,1-4.62-.86A10.33,10.33,0,0,1,405,503.8a11.7,11.7,0,0,1-2.42-4.12,17,17,0,0,1-.87-5.67,14.31,14.31,0,0,1,.79-4.78,11.6,11.6,0,0,1,2.24-3.87,10.43,10.43,0,0,1,3.58-2.6,11.51,11.51,0,0,1,4.75-.94,11,11,0,0,1,4.08.74,9.18,9.18,0,0,1,3.22,2.14,10,10,0,0,1,2.12,3.47,13.22,13.22,0,0,1,.77,4.71,3,3,0,0,1-.23,1.46,1,1,0,0,1-.88.38H406.32a13.77,13.77,0,0,0,.62,3.84,8,8,0,0,0,1.51,2.73,5.93,5.93,0,0,0,2.29,1.62,7.85,7.85,0,0,0,3,.54,8.9,8.9,0,0,0,2.68-.37,12.13,12.13,0,0,0,1.95-.79c.54-.28,1-.54,1.37-.78a1.85,1.85,0,0,1,1-.37,1,1,0,0,1,.88.44Zm-3.83-11.54a8.27,8.27,0,0,0-.39-2.59,5.84,5.84,0,0,0-1.15-2.06,5.33,5.33,0,0,0-1.85-1.36,6.22,6.22,0,0,0-2.52-.48,6.12,6.12,0,0,0-4.6,1.72,8.39,8.39,0,0,0-2.13,4.77Z"/><path class="cls-4" d="M433,471.05v35.79h-4.66V471.05Z"/><path class="cls-4" d="M444.36,471.05v35.79h-4.65V471.05Z"/><path class="cls-4" d="M472.08,482.21,458.68,514a2,2,0,0,1-.57.83,1.61,1.61,0,0,1-1,.29h-3.45l4.42-9.82-9.91-23.08h4a1.33,1.33,0,0,1,.93.29,1.75,1.75,0,0,1,.48.65l6.13,14.79.36,1.13c.12.38.22.76.3,1.13.11-.39.23-.78.36-1.16s.26-.75.4-1.12l5.92-14.77a1.58,1.58,0,0,1,.52-.68,1.37,1.37,0,0,1,.81-.26Z"/></g><path class="cls-5" d="M405.79,341.08c48.42,10.41,82.15,52,82.16,101.53,0,4.07,1.83,9.5-.86,11.85-2.3,2-7.58.68-11.54.68q-134.73,0-269.46.12c-4.41,0-5.28-1.19-5.42-5.45-.71-23.45,4.23-45.33,17.51-64.89q24-35.26,65.81-44c3.47.61,4.43,3.59,5.83,6.17,1.45,9.55,7.64,15.86,14.86,21.35,9.7,7.39,21.08,10.42,32.92,11.52,15.52,1.44,30.41-.78,44.12-8.95,9.44-5.63,16.38-13,19-24C402,344.73,402.9,342,405.79,341.08Z"/><path class="cls-6" d="M405.79,341.08l-4.07,5.63c-3.48,5.34-9.28,6.84-14.75,8.91A47.72,47.72,0,0,0,375.49,360c-21,10.71-42.08,10.46-62.79-1a27.68,27.68,0,0,0-9.87-3.22c-5-2.38-10.85-3.42-13.91-8.85l-4.93-6a8.09,8.09,0,0,0-3.07-5.21c-10.21-8.53-13.07-20.6-15.95-32.69a64.1,64.1,0,0,1-1.39-21.71c.61-5.9-2-11.48-3.17-17.21A116,116,0,0,1,258,245.67c-2.11-4.08-1.33-8.43-.86-12.63.86-7.58,2.18-15.11,3.6-22.61a4.27,4.27,0,0,1,1-2.23c3.63.46,3.3,3.54,3.32,5.79a41.47,41.47,0,0,0,4.38,17.95c.85,2.46.19,5.12,1,7.58.54,4.07,1.49,8.08,1.43,12.22-.08,5.08,6.14,5.09,7.52,6.26.34.29,13.2-4.8,16.77-3.55,4.33-3.25,8.09-7.38,13.64-8.74a17.67,17.67,0,0,1,2.05-.55c2.15-.47,4.26-1.07,6.39-1.63a54.9,54.9,0,0,1,9.33-.3c5.06-.24,9.74,1.36,14.37,3.12,1.71.65,3.31,1.1,5,.21,4.21-2.15,8.84-2.56,13.4-3.25a55.21,55.21,0,0,1,7.5.16,7.53,7.53,0,0,1,1.41.3,27,27,0,0,0,4.81.81c2.25.53,4.48,1.1,6.73,1.63a29.29,29.29,0,0,1,12.75,8.14c5.48,6.09,17.75,10,17.13,7.24,5.73-2.83,8.4-7.36,7.95-13.79a32.24,32.24,0,0,1,1.28-11.71c.94-2.56.59-5.19.38-7.81.93-3.79,2.8-7.28,3.57-11.13.55-1.51.33-3.13.63-4.67s.72-3.2,3-2.66c1.36,1.14,1.39,2.92,2.1,4.37,2.57,8.24,2.84,16.85,4,25.33a7.93,7.93,0,0,1-1.17,5,171.89,171.89,0,0,1-5.44,30.85,20,20,0,0,0-.35,7.57c1.27,11.69-1.72,22.7-5.1,33.63-2,6.6-5.18,12.62-10.56,17.25A20.86,20.86,0,0,0,405.79,341.08Z"/><path class="cls-6" d="M378.83,75.26a69.41,69.41,0,0,0,17.59-5.56C412.28,62,424.9,74,424.88,88.53c0,6.92-1.38,13.23-5.76,18.66-1.1,1.36-1.17,2.22,0,3.63,19.36,22.85,19.53,48.45,10.64,75.31-.5,1.5-.9,3-1.34,4.55-3.08.76-5.77.17-7.88-2.34-1.85-10.63-3.45-21.32-7-31.59a25.92,25.92,0,0,0-6-9.6c-5.46-5.74-11.89-10.58-16.19-17.39-1.42-2.26-2.67-.56-3.91.24-8.18,5.28-17.44,7.47-26.8,9.34a9.29,9.29,0,0,1-3.78-.2,14.5,14.5,0,0,0-7.65-.11,7.58,7.58,0,0,1-2.18,0,25.11,25.11,0,0,0-6.53-.42c-1.48,0-3,0-4.44-.07a13.08,13.08,0,0,1-2.17-.34,13.6,13.6,0,0,0-4.91-.57,52.69,52.69,0,0,1-28-11c-2.39-1.82-3.84-1.92-6.07.14-15.67,14.47-24.87,32-25.95,53.55-.13,2.69-.88,5.34-.77,8.07a7.15,7.15,0,0,1-8,2.34c-1.65-5.89-4.05-11.62-3.9-17.9a130.34,130.34,0,0,1-.07-23.29c1-12.23,3.32-24.24,11.78-33.53,5.11-5.62,9.29-11,12.5-18.23C288.36,80,303.6,70.89,322.6,68c5.62-.1,11.23,0,16.85-.07,10.8,1.57,21.09,5.39,31.8,7.35A17.46,17.46,0,0,0,378.83,75.26Z"/><path class="cls-7" d="M260.22,190.69l7.61-2.5c4.52-3.36,10-2.67,15.1-3.58a48.89,48.89,0,0,1,10.8-.81c6.84.29,13.67-.32,20.52.45,7.82.88,15.36,2.51,22.52,5.9a17.34,17.34,0,0,0,15.28.1c16.22-7.61,33.44-7,50.66-6.09A80.61,80.61,0,0,1,416,185.79c1.85.42,3.81.6,5,2.4l7.47,2.49a6,6,0,0,0,1.23.69c6.19,1.72,9,5.58,7.8,12.09a1.6,1.6,0,0,1-.22,1.42c-2.39,3.31-6.43,2-9.5,3.38-2.14.5-2.44,2.07-2.51,4s.59,3.76-.49,5.51a27.45,27.45,0,0,1-3.5,10.63,7.22,7.22,0,0,1-2,4.77c-7.63,8.19-17.17,11.78-28.21,11.75-3.66,0-7.34.2-11,0-11.89-.83-20.9-6.11-26-17.25a35.8,35.8,0,0,1-2.31-9.72c0-.47,0-.94,0-1.42,0-8.22-3.13-10.61-11.4-8.73-2.15.49-3.27,1.66-3.25,3.94a32.47,32.47,0,0,1-.24,5.21,8.5,8.5,0,0,1-.32,1.48c-3.56,16.47-15.41,26.28-32.38,26.48-6.48.08-13,.76-19.43-.92a28.8,28.8,0,0,1-14-7.74c-1-1-.87-2.71-2-3.73A29.78,29.78,0,0,1,264,215.74c0-2.7-.06-5.4-1.8-7.69-3.71-.59-7.8.07-10.7-3.22a1.33,1.33,0,0,1-.14-1.37C249.44,195.82,254.54,193.06,260.22,190.69Z"/><path class="cls-8" d="M251.38,203.46a.66.66,0,0,1,.33.7c.72,2.48,2.62,3.32,5,3.63,2,.26,4.1.44,5.33,2.44-1,7-1.7,14-3.1,20.88-1,4.87-.13,9.74-.85,14.56a13.56,13.56,0,0,1-8.16-11.53c-.57-8.73-.23-17.52-.08-26.28C249.83,206.38,250.83,204.93,251.38,203.46Z"/><path class="cls-8" d="M437.15,204.23a.83.83,0,0,1,.32-.77,12.84,12.84,0,0,1,1.71,7.23c0,7,0,13.94,0,20.92a14.94,14.94,0,0,1-6.62,12.92,205.81,205.81,0,0,0-3.95-30.59c-1.28-3.74-.34-6,4-6.27A5,5,0,0,0,437.15,204.23Z"/><path class="cls-9" d="M256.25,149.5q0,11.64.07,23.29A62.05,62.05,0,0,1,256.25,149.5Z"/><path class="cls-10" d="M339.45,67.91A62.14,62.14,0,0,1,322.6,68,60.2,60.2,0,0,1,339.45,67.91Z"/><path class="cls-11" d="M378.83,75.26a8,8,0,0,1-7.58,0Z"/><path class="cls-12" d="M387.38,354.5a69.12,69.12,0,0,0,14.34-7.79c-1.86,12.07-9.62,19.57-19.57,25.43-14.87,8.75-30.82,10.66-47.72,8.54-15.05-1.9-28.24-7.16-38.54-18.58-3.9-4.32-7-9.09-7-15.22,4,3.39,9,5,13.33,7.82a21,21,0,0,1,3.64,2.25c19.18,17.78,59.22,18.32,78.87-.4A30.72,30.72,0,0,0,387.38,354.5Z"/><path class="cls-13" d="M376.94,284.77a22.16,22.16,0,0,1-9.08,10.7c-4.49,2.65-8.47,4.14-13.78.24-5.74-4.22-13-3.64-18.8.52-5,3.61-8.92,1.58-13-.75s-6.59-5.86-8.68-9.84c-.83-2,.61-2.63,2.06-2.88a17.43,17.43,0,0,0,11.84-7.36c1.49-2.12,3.43-2,5.51-1a24.85,24.85,0,0,0,23-.11c1.93-1,3.71-.8,5.15,1,3.67,4.53,8.1,7.6,14.2,7.68C376.27,282.92,377.32,283.43,376.94,284.77Z"/><path class="cls-13" d="M353.08,217.73c.63,3.18,1.25,6.36,1.88,9.54a29.14,29.14,0,0,0,5.43,9.37c1,1.2,2.43,2.45.24,3.88-8.79,1.41-17.63.4-26.45.59-2.81.06-4.92.7-6.12,3.36l-10.44.17a1.52,1.52,0,0,1-.2-1.34,6.38,6.38,0,0,1,2.86-2.38c9.29-5,14.32-12.8,15.45-23.22v0c.93-1.11.49-2.44.53-3.68.13-5,1.12-6,6.18-6.28.95,0,1.91,0,2.86,0,6.11.27,7.06,1.24,7.22,7.27C352.55,216,352.3,217,353.08,217.73Z"/><path class="cls-13" d="M421,236c-1,5-.88,10.1-1.06,15.18-.21,6.16-3.81,9.85-9.54,11.63-.68.23-1.09-.27-1.7-.47-10.38-3.54-14-5.6-15.55-7.16-3.8-3-7.33-6.51-12.25-7.79.8-3.22,3.52-2,5.41-2.09,5.84-.18,11.64,0,17.32-2a38.85,38.85,0,0,0,16.59-11.43C422.22,232.89,421.45,234.45,421,236Z"/><path class="cls-14" d="M387.38,354.5c-1.3,4.17-5.09,5.87-8.3,8C357,377.2,321,374,303.06,355.84a8.39,8.39,0,0,1-.81-1.14,17.89,17.89,0,0,1,11.18,3.08c17.56,11.66,47.27,11.29,64.48-.76C380.8,355,384.16,355.1,387.38,354.5Z"/><path class="cls-15" d="M376.94,284.77c-7.06-1-13.51-3-17.37-9.73-.82-1.43-2-.18-2.87.28-8.17,4.35-16.32,4.32-24.48,0-1.25-.66-2.37-1.6-3.53.35A16.23,16.23,0,0,1,315.13,284c-.93.06-1.27.82-1.49,1.62a9.21,9.21,0,0,1-1.73-5.8c5.46-.12,9-2.91,10.61-8.3.51-1.68.49-3.44.84-5.14a36.44,36.44,0,0,1,9.66-1.72c-1,2.52-.27,4.12,2.4,5.05a29.37,29.37,0,0,0,16.48.64c2.9-.66,5.27-2.32,5.74-5.67l9.7,1.69c-2.22,4.43-.46,9.24,4.59,12.54,1.95,1.27,4.29,1.93,5.92,3.72A2,2,0,0,1,376.94,284.77Z"/><path class="cls-13" d="M309.93,246.47c-5.05,1.95-8.77,5.94-13.28,8.72-.86.51-16,7.08-17.34,7.47-6.05-2.47-9.4-6.53-8.82-13.51.25-3.1-.54-6.29-.86-9.44-.37-1.3-1-2.71,1.15-3.08,7.73,6.51,16.62,9.12,26.72,8.6C301.6,245,306,244,309.93,246.47Z"/><path class="cls-16" d="M328.06,244.47c-1.37-3.61-.37-4.9,3.69-4.8,10,.27,19.94.1,29.9.1l.45.51c.7,1.8-.18,3.07-1.4,4.23-4.77.93-9.76,1.06-14.06,3.73-1.64,1-2.94.15-4.42-.44C337.68,246,333.07,244.33,328.06,244.47Z"/><path class="cls-13" d="M357.64,264.7c1.94,2.43,1,4-1.5,5.19-7.82,3.83-15.62,3.5-23.42,0-1.14-.52-2.35-1.07-2.54-2.59-.28-2.21,2.19-1.42,2.84-2.62C341.23,262.43,349.43,262.89,357.64,264.7Z"/><path class="cls-17" d="M309.93,246.47c-8.49-.38-17.08,1.13-25.46-1.08-5.4-1.43-10.37-3.76-13.79-8.5a1.55,1.55,0,0,1,.1-2.24,31.55,31.55,0,0,0,22.29,9.11c7.94.16,15.77.23,23.43-2.7,11-4.18,17-12.12,19.24-23.36-.25,12.7-7.16,20.72-18.15,25.89-1.5,1.71-4.11,1.17-5.64,2.81Z"/><path class="cls-17" d="M420.09,232.15c-4.16,8-11.66,11-19.64,13.35-4.79,1.39-9.71.88-14.58,1-1.66.06-3.5-.72-4.94.8l-6.85-1.85c-1.44-1.1-3.28.08-4.75-.84l-.07-.12c-3-.9-5.81-2.06-7.64-4.79l0,0c-2.58-4-6.49-7.24-6.69-12.5,14.4,20.6,44.21,23.25,62.74,5.58a12,12,0,0,1,1.14-.84A.76.76,0,0,1,420.09,232.15Z"/><path class="cls-18" d="M377.85,282.65c-6.79-1.4-11.24-5.37-13.09-12.08-.59-2.16-.59-4.22,2.58-4.18C375.9,269.26,378.09,272.64,377.85,282.65Z"/><path class="cls-19" d="M323.36,266.4c3.28,5.51-4,13.91-9,15.24-1.56.41-1.58-1.25-2.42-1.8.34-1.53.6-3.08,1-4.57C314.51,270.09,317.76,266.85,323.36,266.4Z"/><path class="cls-20" d="M437.15,204.23c.54,3.48-1.91,4.78-4.47,4.7-4-.12-4.33,2-4.08,5-1.32-1.07-.76-2.66-1.1-4a2.24,2.24,0,0,1,0-2.83C430.51,205.37,434.47,206.93,437.15,204.23Z"/><path class="cls-21" d="M262,210.23a24.74,24.74,0,0,0-5.94-1.26c-2.59-.32-5-1.31-4.34-4.81,2.84,3.09,7.68.77,10.51,3.89C262.14,208.77,262.07,209.5,262,210.23Z"/><path class="cls-22" d="M361.62,239.74c2.93,1,5.14,3.12,7.64,4.79l-8.56,0C361,242.92,361.31,241.33,361.62,239.74Z"/><path class="cls-23" d="M427.53,207.11l0,2.83c-3.8,1.58-.07,5.82-2.75,7.79,0-2.46,0-4.92-.05-7.37C424.65,208.35,425.29,207.06,427.53,207.11Z"/><path class="cls-24" d="M420.09,232.15l-1.25-.14,2.41-3.65c1,2.56,1.26,5.1-.22,7.59C420.75,234.67,421.42,233.16,420.09,232.15Z"/><path class="cls-25" d="M270.78,234.65l-.1,2.24c-1.22.61-.85,1.83-1.05,2.82-1.71-2.26-.51-4.86-.84-7.29A2.63,2.63,0,0,1,270.78,234.65Z"/><path class="cls-26" d="M312,246.4c1.19-2.31,3.63-2.14,5.64-2.81l0,1C316,245.94,313.8,245.69,312,246.4Z"/><path class="cls-27" d="M369.33,244.65c1.62.07,3.39-.72,4.75.84C372.48,245.3,370.7,246.1,369.33,244.65Z"/><path class="cls-13" d="M421,188.19a158.84,158.84,0,0,0-50.82-2,59,59,0,0,0-17.26,5.31c-5,2.28-10.29,3-15.24.51-12.39-6.21-25.62-7-39.07-6.82-1.59,0-3.19-.05-4.78-.07,0-2.52,2.15-2.89,3.78-3.56a32.22,32.22,0,0,1,17.74-2c.94.15,1.85.49,2.79.58,1.32.13,3.21,1,3.58-1,.28-1.51-1.58-1.78-2.74-2-10-2.38-19.55-1.5-28.33,4.16-2.53,1.64-5.06,3.25-7.66,4.75-5.14.07-10.1,1.39-15.13,2.17-2.09-4.49-.17-9.08.39-13.37,1.12-8.54,3-17.18,7-24.92,4.11-8,9.91-14.93,16.22-21.36a22.27,22.27,0,0,0,1.66-1.71c2.89-3.68,4.85-4.7,9.45-.78A44.71,44.71,0,0,0,329,136.4c1.45,1.08,3.3-.08,4.79.83l1.87.14c1.69.91,3.52.25,5.28.46,2.07.16,4.19-.36,6.23.33h2.06a17.59,17.59,0,0,1,7.54,0,65,65,0,0,0,34.14-11.86c2.68,6.48,7.82,10.93,12.87,15.18,7.84,6.6,11.89,15,13.87,24.72,1.35,6.63,2.73,13.26,4.1,19.89A2,2,0,0,1,421,188.19Z"/><path class="cls-28" d="M356.79,138.18h-7.54A7.57,7.57,0,0,1,356.79,138.18Z"/><path class="cls-29" d="M347.19,138.16l-6.62,0c-.31-.18-.42-.37-.32-.56s.21-.28.31-.28C342.77,137.66,345.15,136.54,347.19,138.16Z"/><path class="cls-30" d="M340.56,137.34c0,.28,0,.56,0,.84-1.67,0-3.45.62-4.89-.81Z"/><path class="cls-31" d="M333.81,137.23c-1.65,0-3.41.68-4.79-.83C330.63,136.59,332.42,135.77,333.81,137.23Z"/><path class="cls-13" d="M329.19,207.19c3.39,15.5-3.36,26.16-18.86,29.81a57.94,57.94,0,0,1-21.83.7c-12.28-1.79-18.38-9.07-18.67-21.47a33.34,33.34,0,0,1,.93-9.95c.78-1.73,1.06-3.76,2.89-4.88a26.39,26.39,0,0,1,21.62-5.19c1.49,2.82-1.21,3.94-2.4,5.52-5.81,7.63-6.11,17.14-.57,23.79,6.24,7.5,16.55,9.4,24.51,4.52,8.31-5.09,11.22-14.82,7.3-24.2-.72-1.73-2.21-3.18-1.91-5.28,2.58-1.47,3.43.77,4.78,2.14S328.09,205.88,329.19,207.19Z"/><path class="cls-13" d="M418.23,207.18c3.34,15.5-3.37,26.29-18.78,29.77a53.89,53.89,0,0,1-25.47-.08c-7.52-1.93-12.59-6.47-14.31-14.29-.61-6.45-1.13-12.9,1-19.2h0c2.07-.75,2.62-4.65,5.92-2.87.51,1.93-.75,3.34-1.45,4.9-4.25,9.51-1.74,19,6.47,24.39,7.76,5.07,18.23,3.38,24.62-4,6.09-7,5.71-17.11-.91-24.82-1.11-1.29-2.71-2.37-2.22-4.47a4.14,4.14,0,0,1,3.49-.82,7,7,0,0,1,2.63,1.09,7.77,7.77,0,0,1,2.09,1.77c2.37,3.2,4.44,2.37,6.42-.38C413.85,198.14,416.39,202.25,418.23,207.18Z"/><path class="cls-32" d="M283,186c10.38-10.65,22.89-13.49,37.07-10,1.9.47,4.64.73,4,3.63s-2.95,2.48-5.35,1.92c-8.72-2-17.23-2.11-24.9,3.52C290.17,185.27,286.51,185,283,186Z"/><path class="cls-33" d="M295.79,196.89c-8-.49-15.51.94-22.28,5.44a1.35,1.35,0,0,1,0-1.9c2.59-3.78,6.75-4.75,10.77-5.44,5.69-1,11.48-2.33,17.25-.25l-.32.5a14.65,14.65,0,0,1-3.69,1.95A2,2,0,0,1,295.79,196.89Z"/><path class="cls-34" d="M353.08,217.73c-1.11-.74-1-1.9-1-3,0-2.23.39-4.61-2.79-5.08-4.06-.6-8.19-1.62-11.92,1-.55.39-.48,1.74-.62,2.66-.22,1.51.52,3.23-1,4.43a4.9,4.9,0,0,1-.14-1.4c.67-2.94-1.67-6.82,1.73-8.76,4.36-2.48,9.19-1.69,13.84-.26,1.68.51,2,1.79,2,3.32Q353.15,214.18,353.08,217.73Z"/><path class="cls-35" d="M418.23,207.18c-2.38-4.25-5.47-7.62-10.54-8.53a2.88,2.88,0,0,1-1.85-.61c-.62-.73-1-1.46-.13-2.27C412.91,196.28,417.32,200.3,418.23,207.18Z"/><path class="cls-36" d="M329.19,207.19c-2.4-2.1-2.8-6.23-6.8-6.72-1.61.73-2.41-.64-3.48-1.33-.84-1.14-2.9-1.54-2.26-3.61C324.36,196.74,328.28,200.39,329.19,207.19Z"/><path class="cls-37" d="M405.71,195.77a1.94,1.94,0,0,0,.75,2.07c-2.28,1.69-2.28,1.69-7.38-.25l-2.09-.88c-1.18-1.15-3.7-.31-4-2.72C397.37,193.41,401.58,194.34,405.71,195.77Z"/><path class="cls-38" d="M301.53,194.74c3.82-2.32,7.59-.25,11.38.09a2.32,2.32,0,0,1,.31,2.35c-4,2.5-7.88.72-11.81-.13a1.82,1.82,0,0,1-.27-2.3Z"/><path class="cls-39" d="M366.44,200.5c-2.48-.15-3.29,3-5.76,2.89,2.09-5.18,6.26-7.29,11.52-7.8.59,2.07-1.48,2.39-2.31,3.53C368.84,199.84,368,201.12,366.44,200.5Z"/><path class="cls-40" d="M379.72,193.88c2-.09,4-.36,5.85.89,1.24-.33,1.92.23,2.23,1.39a1.56,1.56,0,0,1-.87,1.19c-3.68.39-7.34,2-11.06.23a1.67,1.67,0,0,1,.14-2C377,194.55,378.55,194.59,379.72,193.88Z"/><path class="cls-41" d="M387.57,195.73l-2-1c2.29-2,4.92-.55,7.39-.78l4,2.72-4.05.2C390.81,198.08,389.15,197.1,387.57,195.73Z"/><path class="cls-42" d="M360.66,203.38c-1.1,6.36-1,12.78-1,19.2C358.05,216.08,357.73,209.64,360.66,203.38Z"/><path class="cls-43" d="M376.79,195.64l-.89.92a3,3,0,0,1-1.93,2c-1.58.29-3.18,1.34-4.74-.05l3-2.91,3.73-1C376.86,194.41,377.18,194.73,376.79,195.64Z"/><path class="cls-44" d="M312.91,196.54v-1.71a5.22,5.22,0,0,1,3.74.7l2.92,2.91c-1.54,1.5-3.15.42-4.75.13A2.93,2.93,0,0,1,312.91,196.54Z"/><path class="cls-45" d="M273.51,200.43v1.9q-1.36,2-2.75,3.95A6.47,6.47,0,0,1,273.51,200.43Z"/><path class="cls-46" d="M376.79,195.64l-.86-1.06c1.09-1.14,2.48-.69,3.79-.7A5.17,5.17,0,0,1,376.79,195.64Z"/><path class="cls-47" d="M314.53,197.63l5,.81c.94.68,1.88,1.36,2.83,2,6.7,10.47,6.36,20-1,27.46a19.84,19.84,0,0,1-28,.67c-8.23-7.88-8.67-20-1-28.32,1.08-1.16,2.24-2.26,3.36-3.39l1.66-.31a3.72,3.72,0,0,1,2.76-.25c1.11,1.39.15,2.74-.15,4.07a7.16,7.16,0,0,0,3,7.94,6.22,6.22,0,0,0,7.18.5,7.39,7.39,0,0,0,4-7.52C314.18,200.09,313.65,198.81,314.53,197.63Z"/><path class="cls-47" d="M369.23,198.5l5.09-.86c.56,1.4,0,2.82,0,4.22a7.71,7.71,0,0,0,4.53,7.22,6.41,6.41,0,0,0,7.47-1.19,7,7,0,0,0,2.21-8.12c-.36-1-1-2-.86-3.16,0-.29-.08-.58-.14-.88l5.37,1.18c7,5.85,10.66,13,8.15,22.23-2.32,8.53-8.25,13.51-16.88,14.68-8.08,1.1-14.79-2.09-19.23-8.88-4.56-7-4.5-14.33-.2-21.56.57-.95,1.11-1.92,1.66-2.88Z"/><path class="cls-48" d="M399.08,197.59l7.38.25,1.23.81c-1.35,4.5-3,5-6.19,1.74C400.64,199.5,399.88,198.52,399.08,197.59Z"/><path class="cls-49" d="M300.35,196.68l-2.9-.1a6.31,6.31,0,0,1,3.69-1.83c0,.63,0,1.26.05,1.89A.49.49,0,0,1,300.35,196.68Z"/><path class="cls-50" d="M300.35,196.68a4.73,4.73,0,0,0,.84,0c3.9-.54,7.82,1.17,11.72-.1l1.62,1.09c.88,2.41,1.66,4.82.79,7.42a8.78,8.78,0,0,1-10.69,5.65,8.58,8.58,0,0,1-5.65-11A28.24,28.24,0,0,1,300.35,196.68Z"/><path class="cls-50" d="M387.71,196.61c3.41,4.21,3.49,8.4.23,11.78a8.62,8.62,0,0,1-10.87,1.31c-3.83-2.47-4.95-7.39-2.75-12.06l1.58-1.08C379.84,197.72,383.78,196.17,387.71,196.61Z"/></g></g></svg>